<svg id="Сгруппировать_66" data-name="Сгруппировать 66" xmlns="http://www.w3.org/2000/svg" width="90" height="32" viewBox="0 0 90 32">
  <g id="Сгруппировать_70" data-name="Сгруппировать 70" transform="translate(31.961)">
    <g id="Сгруппировать_69" data-name="Сгруппировать 69">
      <g id="Сгруппировать_68" data-name="Сгруппировать 68">
        <g id="Сгруппировать_66-2" data-name="Сгруппировать 66" transform="translate(0.086)">
          <path id="Контур_42" data-name="Контур 42" d="M1233.438,967.685h-3.452l-1.267,5.685H1226.1l4.585-20.336h2.021l4.639,20.336h-2.643Zm-2.858-2.594h2.265l-1.132-4.995Z" transform="translate(-1226.104 -953.006)" fill="#fff"/>
          <path id="Контур_43" data-name="Контур 43" d="M1250.047,973.336h-8.656V953h2.534v17.743h6.122Z" transform="translate(-1228.716 -953)" fill="#fff"/>
          <path id="Контур_44" data-name="Контур 44" d="M1256.576,964.478v8.858h-2.535V953h4.125c3.371,0,5.07,2.069,5.07,5.712,0,3.726-1.645,5.767-5.07,5.767Zm0-8.857v6.236h1.59a2.814,2.814,0,0,0,1.43-.248,3.361,3.361,0,0,0,.485-.386,3.761,3.761,0,0,0,.594-2.511,3.718,3.718,0,0,0-.621-2.539,2.479,2.479,0,0,0-1.888-.551Z" transform="translate(-1230.878 -953)" fill="#fff"/>
          <path id="Контур_45" data-name="Контур 45" d="M1273.968,961.891v-8.857h2.562V973.37h-2.562v-8.858h-3.829v8.858H1267.6V953.034h2.535v8.857Z" transform="translate(-1233.195 -953.006)" fill="#fff"/>
          <path id="Контур_46" data-name="Контур 46" d="M1289.313,967.685h-3.452l-1.267,5.685h-2.616l4.585-20.336h2.021l4.639,20.336h-2.643Zm-2.858-2.594h2.265l-1.133-4.995Z" transform="translate(-1235.652 -953.006)" fill="#fff"/>
        </g>
        <g id="Сгруппировать_67" data-name="Сгруппировать 67" transform="translate(0 23.421)">
          <path id="Контур_47" data-name="Контур 47" d="M1226.4,989.137a.358.358,0,0,1-.4-.408v-7.66a.357.357,0,0,1,.4-.407h4.714a.407.407,0,0,1,0,.814H1226.8v2.968h2.807a.407.407,0,0,1,0,.814H1226.8v3.065h4.312a.408.408,0,0,1,0,.815Z" transform="translate(-1226 -980.655)" fill="#fff"/>
          <path id="Контур_48" data-name="Контур 48" d="M1238.219,989.137a.357.357,0,0,1-.4-.408v-7.66a.357.357,0,0,1,.4-.407.544.544,0,0,1,.408.24l5.314,6.923h-.192v-6.756a.4.4,0,1,1,.805,0v7.66a.358.358,0,0,1-.4.408.534.534,0,0,1-.408-.24l-5.314-6.923h.191v6.755A.358.358,0,0,1,1238.219,989.137Z" transform="translate(-1228.019 -980.655)" fill="#fff"/>
          <path id="Контур_49" data-name="Контур 49" d="M1252.3,989.137a.357.357,0,0,1-.4-.408v-7.66a.357.357,0,0,1,.4-.407h4.714a.407.407,0,0,1,0,.814H1252.7v2.968h2.807a.407.407,0,0,1,0,.814H1252.7v3.065h4.312a.408.408,0,0,1,0,.815Z" transform="translate(-1230.425 -980.655)" fill="#fff"/>
          <path id="Контур_50" data-name="Контур 50" d="M1269.278,989.156a.38.38,0,0,1-.3.068.411.411,0,0,1-.245-.2l-2.054-3.361h-2.156v3.064a.4.4,0,1,1-.8,0v-7.66a.358.358,0,0,1,.4-.407h2.985a2.284,2.284,0,0,1,1.7.588,2.351,2.351,0,0,1,.58,1.72v.388a2.476,2.476,0,0,1-.449,1.564,1.966,1.966,0,0,1-1.324.7l1.812,2.974A.367.367,0,0,1,1269.278,989.156Zm-4.758-4.306h2.583a1.53,1.53,0,0,0,1.129-.352,1.589,1.589,0,0,0,.345-1.142v-.388a1.588,1.588,0,0,0-.345-1.14,1.527,1.527,0,0,0-1.129-.353h-2.583Z" transform="translate(-1232.445 -980.655)" fill="#fff"/>
          <path id="Контур_51" data-name="Контур 51" d="M1278.434,989.137a2.8,2.8,0,0,1-2.067-.666,2.887,2.887,0,0,1-.657-2.094v-2.955a2.9,2.9,0,0,1,.657-2.1,2.768,2.768,0,0,1,2.055-.656h1.543a2.728,2.728,0,0,1,1.78.494,2.144,2.144,0,0,1,.663,1.587.367.367,0,0,1-.076.311.4.4,0,0,1-.306.11c-.247,0-.387-.137-.421-.408a1.293,1.293,0,0,0-.424-1.008,2.112,2.112,0,0,0-1.216-.272h-1.543a2.811,2.811,0,0,0-1.129.175,1.114,1.114,0,0,0-.6.607,3.041,3.041,0,0,0-.182,1.164v2.955a3,3,0,0,0,.182,1.15,1.121,1.121,0,0,0,.6.611,2.881,2.881,0,0,0,1.135.184h1.531a2.676,2.676,0,0,0,1-.152.92.92,0,0,0,.513-.52,2.788,2.788,0,0,0,.149-1.016v-.743l-1.263-.013a.407.407,0,0,1,0-.814l1.666.012a.358.358,0,0,1,.4.408v1.15a2.624,2.624,0,0,1-.59,1.907,2.555,2.555,0,0,1-1.879.6Z" transform="translate(-1234.494 -980.655)" fill="#fff"/>
          <path id="Контур_52" data-name="Контур 52" d="M1291.175,989.136a.358.358,0,0,1-.4-.408v-2.8l-2.877-4.622a.378.378,0,0,1,.128-.569.351.351,0,0,1,.555.128l2.6,4.19,2.667-4.2a.4.4,0,0,1,.245-.194.373.373,0,0,1,.3.084.347.347,0,0,1,.12.556l-2.934,4.622v2.8A.358.358,0,0,1,1291.175,989.136Z" transform="translate(-1236.563 -980.653)" fill="#fff"/>
        </g>
      </g>
    </g>
  </g>
  <g id="Сгруппировать_71" data-name="Сгруппировать 71">
    <path id="Контур_53" data-name="Контур 53" d="M1208.956,970.4l3.576-2.086v-4.291l-3.576,2.086-7.9,4.61v-4.6l5.885-3.433,3.577-2.086-3.678-2.146-3.577,2.086-2.207,1.288V953l-1.787,1.042-1.788,1.044-11.478,6.7V977.26l9.586,5.592,1.893,1.1,1.785,1.042,0,0,1.788-1.043,11.478-6.7v-4.294l-3.576,2.087-7.9,4.609v-4.648Zm-11.478,9.379-7.9-4.61V963.868l7.9-4.61v20.526Z" transform="translate(-1186 -953)" fill="#fff"/>
  </g>
</svg>
